<?xml version="1.0" encoding="UTF-8"?>
<!DOCTYPE svg PUBLIC "-//W3C//DTD SVG 1.1//EN" "http://www.w3.org/Graphics/SVG/1.1/DTD/svg11.dtd">
<!-- Creator: CorelDRAW Home & Student X6 -->
<?xml-stylesheet href="logo-icon.css" type="text/css"?>
<svg xmlns="http://www.w3.org/2000/svg" xml:space="preserve" width="345px" height="89px" version="1.1" style="shape-rendering:geometricPrecision; text-rendering:geometricPrecision; image-rendering:optimizeQuality; fill-rule:evenodd; clip-rule:evenodd"
viewBox="0 0 27 7"
 xmlns:xlink="http://www.w3.org/1999/xlink">
 <g id="Capa_x0020_1">
  <metadata id="CorelCorpID_0Corel-Layer"/>
  <g id="_447733496">
   <path class="fil0" d="M0 1c0,0 0,0 0,0 0,0 0,0 0,0 0,0 0,0 0,0 0,0 0,0 0,0 0,0 0,0 0,0 0,0 0,0 0,0 0,0 0,0 0,0 0,0 0,0 0,0zm0 6l0 0 0 -5 1 0 0 5 -1 0z"/>
   <path class="fil0" d="M5 7c0,0 0,0 0,0 0,0 0,0 -1,0 -1,0 -1,0 -1,0 0,0 0,-1 0,-1l0 -2 -1 0 0 0 2 -2 0 0 0 1 2 0 0 1 -2 0 0 2c0,0 0,1 0,1 0,0 0,0 1,0 0,0 0,0 0,0 0,0 0,0 0,0l0 1z"/>
   <path class="fil0" d="M8 6l0 -1c-1,0 -1,0 -1,1 0,0 0,0 0,1 0,0 0,0 0,0 0,0 0,0 1,0 0,0 0,0 1,0 0,0 0,0 0,0zm0 1l0 0c0,0 0,0 -1,0 0,0 0,0 -1,0 0,0 -1,0 -1,0 0,0 0,0 0,-1 0,0 0,-1 0,-1 0,0 1,0 1,-1l1 0c0,0 0,0 0,0 0,0 0,0 0,0 0,0 0,0 0,-1 0,0 0,0 -1,0 0,0 -1,0 -1,0 0,0 -1,0 -1,1l0 -1c0,0 1,0 1,0 0,0 1,0 1,0 1,0 1,0 1,0 0,0 0,1 0,1l0 2c0,0 0,0 0,0 0,0 0,0 0,0 0,0 0,0 0,0 0,0 0,0 0,0l0 1c0,0 0,0 -1,0 0,0 0,0 -1,0 0,0 0,0 0,0 0,0 0,0 0,0z"/>
   <path class="fil0" d="M14 6l0 1c0,0 0,0 -1,0 0,0 0,0 -1,0 -1,0 -1,0 -2,-1 -1,0 -1,-1 -1,-2 0,-1 0,-1 1,-2 1,0 1,-1 2,-1 0,0 0,0 1,0 0,0 0,0 1,0l0 1c0,0 0,0 -1,0 0,0 0,0 -1,0 0,0 -1,0 -1,0 0,0 0,1 0,1 0,0 0,1 0,1 0,0 1,0 1,0 0,0 0,0 1,0 0,0 0,0 1,0z"/>
   <path class="fil0" d="M15 4c0,0 0,1 0,1 0,0 1,0 1,0 0,0 1,0 1,0 0,0 0,-1 0,-1 0,0 0,-1 0,-1 0,0 -1,0 -1,0 0,0 -1,0 -1,0 0,0 0,1 0,1zm-1 0l0 0c0,-1 0,-1 1,-2 1,0 1,-1 2,-1 0,0 1,0 1,0 0,0 1,0 1,1 0,0 0,1 1,1 0,0 0,1 0,1 0,0 0,1 0,1 0,0 0,1 -1,1 0,0 -1,0 -1,1 0,0 -1,0 -1,0 -1,0 -1,0 -2,-1 -1,0 -1,-1 -1,-2z"/>
   <path class="fil0" d="M20 7l0 -5 1 0 0 1c0,0 0,0 1,-1 0,0 0,0 1,0 0,0 1,0 1,0 0,0 0,0 1,1 0,0 1,-1 1,-1 0,0 1,0 1,0 1,0 1,0 1,0 0,0 0,1 0,1l0 3 -1 0 0 -3c0,0 0,-1 0,-1 0,0 0,0 -1,0 0,0 0,0 -1,0 0,0 0,0 -1,0l0 4 -1 0 0 -3c0,0 0,-1 0,-1 0,0 0,0 -1,0 0,0 0,0 -1,0 0,0 0,0 -1,0l0 4 -1 0z"/>
  </g>
 </g>
</svg>
