<svg xmlns="http://www.w3.org/2000/svg" xmlns:xlink="http://www.w3.org/1999/xlink" version="1.1" width="114" height="50" enable-background="new 0 0 800 600" xml:space="preserve"><rect id="backgroundrect" width="100%" height="100%" x="0" y="0" fill="none" stroke="none" class=""/>

<g class="currentLayer" fill="#ffffff"><title>Layer 1</title><g id="svg_1" class="">
	<path d="M2.0731997455916298e-20,37.17578850063629 v-37.175790576655736 h6.1289494343847695 v31.962760934420547 h15.872688038924352 v5.213029642235183 H2.0731997455916298e-20 z" id="svg_2"/>
	<path d="M52.97679212991416,23.063178805278287 c0,4.593541624396205 -1.1881540674298214,8.179194687369623 -3.564462202289464,10.755874271200751 c-2.3763081348596433,2.576679583831126 -5.683665175228289,3.865561834606443 -9.92316518562475,3.865561834606443 c-2.6498242645626404,0 -4.992216399339112,-0.5934499925707906 -7.026082339810601,-1.7803499777123695 c-2.034960004990302,-1.1868999851415798 -3.599472266891448,-2.8902208047688926 -4.6924427211846265,-5.111047376601446 c-1.0940645188119902,-2.220826571832554 -1.6410967782179862,-4.7975061556636796 -1.6410967782179862,-7.730038751493378 c0,-4.559909175091462 1.1794015512793257,-8.119524212796694 3.538204653837976,-10.679930030835202 s5.683665175228289,-3.839523809338255 9.974586218008916,-3.839523809338255 c4.102741945544963,0 7.34992543737895,1.309495687445966 9.743738604539583,3.928487062337898 C51.77988554633385,15.091203402334648 52.97679212991416,18.621525661613187 52.97679212991416,23.063178805278287 zM32.33507685348838,23.063178805278287 c0,6.4921476335349295 2.41897665109331,9.739306368021904 7.256929953279931,9.739306368021904 c4.786532269802457,0 7.1803454369630915,-3.2460738167674648 7.1803454369630915,-9.739306368021904 c0,-6.424882734925443 -2.410224134942814,-9.637324102388167 -7.230672404828443,-9.637324102388167 c-2.5305712320121336,0 -4.363129301022217,0.8310469731430082 -5.499862336067875,2.4920560017095146 C32.902896338751816,17.57891973316614 32.33507685348838,19.960314127485844 32.33507685348838,23.063178805278287 z" id="svg_3"/>
	<path d="M83.8501987862697,9.052551375553993 v3.2797062660722083 l-4.846705818337116,0.8896325299964316 c0.4441901946376681,0.5934499925707906 0.8117958729584976,1.3225147000800601 1.1028170349624862,2.1871941225278104 c0.29102116200398964,0.8646794224477508 0.4354376784871723,1.7803499777123695 0.4354376784871723,2.74592674807435 c0,2.8989001465249555 -1.008727486344655,5.178312275210932 -3.0261824590339654,6.840406221496947 c-2.01745497268931,1.6610090285665076 -4.795284785952953,2.4920560017095146 -8.333489439790931,2.4920560017095146 c-0.9069794860951409,0 -1.7275278752041334,-0.06834981632899415 -2.461645167326978,-0.20396453126747446 c-1.2997486483486447,0.7963296061187568 -1.9485289080041546,1.729358844895501 -1.9485289080041546,2.7969178808912183 c0,0.6444411253876592 0.3030558717109217,1.1272295105686485 0.9102616796515762,1.449450073262478 c0.6061117434218426,0.32222056269382987 1.722057552610073,0.4827883851809903 3.3467433630458783,0.4827883851809903 h4.948453818586631 c3.12793045928348,0 5.504238594143122,0.6607148911802767 7.128924404578928,1.9832295912603364 c1.6235917459169935,1.3225147000800601 2.436481683394302,3.229800050974847 2.436481683394302,5.7207711349648545 c0,3.1874882599140415 -1.3249121322813202,5.644826894599305 -3.9747363968439604,7.3741857394948065 c-2.6498242645626404,1.729358844895501 -6.4790500804046065,2.5940382673432514 -11.487677447525897,2.5940382673432514 c-3.8631418159251383,0 -6.812739758642263,-0.6780735746924023 -8.846605699113754,-2.0342207240772052 c-2.034960004990302,-1.3561471493848032 -3.0513459429666407,-3.288385607828271 -3.0513459429666407,-5.797800293049911 c0,-1.729358844895501 0.5514085174812431,-3.1831485890360103 1.6542255524437302,-4.361369232421527 s2.64435394196858,-1.9962486038944305 4.627892914574718,-2.4540838815267403 c-0.804137421326813,-0.33957924620595525 -1.4660464552080672,-0.8852928591184002 -1.9868211661625748,-1.6403955918958586 c-0.5218687754733194,-0.7540178150579505 -0.7822561309505732,-1.5470926680181836 -0.7822561309505732,-2.3770547234416832 c0,-1.0512852702030995 0.29867961363567375,-1.9409178001995304 0.8971329054258328,-2.6699825077088004 c0.5984532917901592,-0.7290647075092703 1.486833681065495,-1.449450073262478 2.667329296863633,-2.161156097259622 c-1.4704227132833152,-0.6270824418755339 -2.662953038788385,-1.6490749336519208 -3.5775909765152076,-3.0638076398901473 c-0.9146379377268249,-1.4158176239577358 -1.3719569065902362,-3.07248698164621 -1.3719569065902362,-4.971092990784933 c0,-3.051873544975561 0.9704352281862351,-5.41590925578315 2.9102116200398953,-7.0942769678617825 c1.9397763918536586,-1.6783677120786336 4.7055714954103705,-2.517009109258195 8.29519718163251,-2.517009109258195 c0.8030433568080012,0 1.6443789717744215,0.05533080369490009 2.5261949739368856,0.1649074933651924 c0.8807219376436524,0.11066160738980002 1.5426309715249062,0.22457796793812354 1.9868211661625748,0.34283399936447884 H83.8501987862697 zM61.56629266710709,41.549091827972404 c0,1.288882250775317 0.5853245175644157,2.280497046405485 1.755973552693245,2.974844386890504 c1.1706490351288297,0.6954322582045278 2.8161220714220625,1.0426059284470368 4.9364191088797,1.0426059284470368 c3.2821935564359705,0 5.7263336914619565,-0.46651461938837246 7.3335144695967704,-1.3984589404456091 c1.6060867136160017,-0.9319443210572369 2.410224134942814,-2.169835439015685 2.410224134942814,-3.7125884361558374 c0,-1.2205324344463229 -0.43981393656242035,-2.089551527772105 -1.3205358742060722,-2.605972362257838 c-0.8807219376436524,-0.517505752205241 -2.5174424577863896,-0.7757161694481076 -4.910161560428213,-0.7757161694481076 h-4.564437172483623 c-1.7275278752041334,0 -3.0994847817943683,0.4025044739374104 -4.115870719770707,1.207513421812229 C62.07503266835471,39.08632860468962 61.56629266710709,40.17558599507545 61.56629266710709,41.549091827972404 zM64.15703744765388,18.155011042224807 c0,1.7629912942002441 0.45731896886341267,3.1191384435850473 1.3719569065902362,4.0684414481544104 c0.9135438732080122,0.9493030045693626 2.2264212957824,1.4244969657137978 3.9364441386855407,1.4244969657137978 c3.487877685972625,0 5.230722464440125,-1.847614876321856 5.230722464440125,-5.542844628965567 c0,-1.8313411105292388 -0.43215548493073636,-3.2417341458894335 -1.2953723902733962,-4.233348941519601 c-0.8632169053426605,-0.9916147956301679 -2.1760943279170486,-1.487422193445252 -3.9364441386855407,-1.487422193445252 c-1.7439388429863127,0 -3.0644747171923847,0.4914677269370529 -3.9616076226182164,1.4744031808111582 S64.15703744765388,16.273763716598232 64.15703744765388,18.155011042224807 z" id="svg_4"/>
	<path d="M114.26191021568663,23.063178805278287 c0,4.593541624396205 -1.1892481319486334,8.179194687369623 -3.564462202289464,10.755874271200751 c-2.377402199378455,2.576679583831126 -5.684759239747102,3.865561834606443 -9.92316518562475,3.865561834606443 c-2.6509183290814526,0 -4.992216399339112,-0.5934499925707906 -7.026082339810601,-1.7803499777123695 c-2.034960004990302,-1.1868999851415798 -3.599472266891448,-2.8902208047688926 -4.6924427211846265,-5.111047376601446 c-1.0940645188119902,-2.220826571832554 -1.6410967782179862,-4.7975061556636796 -1.6410967782179862,-7.730038751493378 c0,-4.559909175091462 1.1794015512793257,-8.119524212796694 3.538204653837976,-10.679930030835202 s5.683665175228289,-3.839523809338255 9.975680282527726,-3.839523809338255 c4.102741945544963,0 7.34992543737895,1.309495687445966 9.743738604539583,3.928487062337898 C113.06390956758747,15.091203402334648 114.26191021568663,18.621525661613187 114.26191021568663,23.063178805278287 zM93.619100874742,23.063178805278287 c0,6.4921476335349295 2.417882586574498,9.739306368021904 7.256929953279931,9.739306368021904 c4.7854382052836435,0 7.1803454369630915,-3.2460738167674648 7.1803454369630915,-9.739306368021904 c0,-6.424882734925443 -2.410224134942814,-9.637324102388167 -7.230672404828443,-9.637324102388167 c-2.5305712320121336,0 -4.3642233655410285,0.8310469731430082 -5.499862336067875,2.4920560017095146 C94.18692036000543,17.57891973316614 93.619100874742,19.960314127485844 93.619100874742,23.063178805278287 z" id="svg_5"/>
</g></g></svg>